<svg width="245" height="39" viewBox="0 0 245 39" fill="none" xmlns="http://www.w3.org/2000/svg">
<path d="M3.56 30.4C3.42667 30.3467 3.33333 30.2667 3.28 30.16C3.22667 30.0533 3.17333 29.84 3.12 29.52C3.12 29.2267 3.04 29.0133 2.88 28.88C2.72 28.7467 2.41333 28.6267 1.96 28.52C1.66667 28.2267 1.42667 27.8933 1.24 27.52C1.05333 27.12 0.906667 26.4933 0.8 25.64C0.693334 24.76 0.586667 23.4667 0.48 21.76C0.533334 20.8267 0.573334 20.04 0.600001 19.4C0.653334 18.76 0.706667 18.16 0.76 17.6C0.813334 17.04 0.866667 16.44 0.920001 15.8C1 15.16 1.10667 14.36 1.24 13.4C1.18667 12.7867 1.21333 12.12 1.32 11.4C1.45333 10.68 1.48 10.1067 1.4 9.68C1.58667 9.09333 1.70667 8.42667 1.76 7.68C1.81333 6.90667 1.93333 6.22667 2.12 5.64C2.17333 5.18667 2.22667 4.76 2.28 4.36C2.36 3.96 2.4 3.62667 2.4 3.36C2.34667 2.82666 2.4 2.26666 2.56 1.68C2.74667 1.09333 3.13333 0.666666 3.72 0.399998C3.88 0.346665 4.09333 0.319999 4.36 0.319999C4.65333 0.319999 4.88 0.346665 5.04 0.399998C5.46667 0.586665 5.70667 0.879999 5.76 1.28C5.84 1.68 5.86667 2.02666 5.84 2.32C5.89333 2.61333 5.92 3.12 5.92 3.84C5.94667 4.56 5.92 5.36 5.84 6.24C5.78667 7.09333 5.66667 7.93333 5.48 8.76C5.26667 9.85333 5.09333 10.9733 4.96 12.12C4.85333 13.24 4.77333 14.3467 4.72 15.44C4.61333 17.6267 4.50667 19.44 4.4 20.88C4.29333 22.32 4.28 23.36 4.36 24C4.36 24.08 4.36 24.2 4.36 24.36C4.38667 24.4933 4.42667 24.6133 4.48 24.72C4.53333 24.8 4.6 24.84 4.68 24.84C4.78667 24.8133 4.86667 24.7333 4.92 24.6C5 24.4667 5.08 24.2667 5.16 24C5.26667 23.7333 5.4 23.4267 5.56 23.08C5.90667 22.4133 6.25333 21.6933 6.6 20.92C6.97333 20.12 7.29333 19.36 7.56 18.64C8.04 17.52 8.52 16.56 9 15.76C9.48 14.96 9.93333 14.0667 10.36 13.08C10.52 12.6533 10.8 12.04 11.2 11.24C11.6267 10.4133 12.0267 9.65333 12.4 8.96C12.8533 8.26667 13.28 7.6 13.68 6.96C14.1067 6.32 14.6 5.46667 15.16 4.4C15.9333 3.12 16.6 2.18667 17.16 1.6C17.72 0.986666 18.2133 0.679999 18.64 0.679999C18.9333 0.626665 19.1733 0.626665 19.36 0.679999C19.5733 0.706665 19.7733 0.853332 19.96 1.12C20.1733 1.41333 20.3067 1.74667 20.36 2.12C20.4133 2.49333 20.32 2.97333 20.08 3.56C19.8667 4.14667 19.4133 4.93333 18.72 5.92C18.1867 6.72 17.5867 7.65333 16.92 8.72C16.28 9.78667 15.68 10.8 15.12 11.76C14.5867 12.6933 14.2 13.3867 13.96 13.84C13.8267 14.1333 13.7067 14.44 13.6 14.76C13.4933 15.08 13.3333 15.3733 13.12 15.64C12.8533 15.9067 12.4933 16.48 12.04 17.36C11.5867 18.24 11.1467 19.1067 10.72 19.96C10.24 21.08 9.85333 21.96 9.56 22.6C9.29333 23.2133 9.06667 23.72 8.88 24.12C8.72 24.52 8.56 24.9067 8.4 25.28C8.24 25.6533 8.04 26.12 7.8 26.68C7.66667 27.1333 7.48 27.52 7.24 27.84C7.02667 28.16 6.90667 28.4 6.88 28.56C6.69333 28.8533 6.36 29.16 5.88 29.48C5.42667 29.8 4.97333 30.0533 4.52 30.24C4.06667 30.4267 3.74667 30.48 3.56 30.4ZM18.1184 27.72C17.7718 27.72 17.4918 27.6533 17.2784 27.52C17.0918 27.3867 16.8518 27.2 16.5584 26.96C16.0518 26.4267 15.6384 25.8533 15.3184 25.24C15.0251 24.6267 14.9184 24.0933 14.9984 23.64C15.0784 23.4267 15.1051 23.2267 15.0784 23.04C15.0784 22.8267 15.0784 22.72 15.0784 22.72C14.9451 22.5867 14.9051 22.5067 14.9584 22.48C15.0118 22.4267 15.0651 22.3467 15.1184 22.24C15.2784 22.24 15.3318 22.0933 15.2784 21.8C15.2251 21.5867 15.3051 21.1333 15.5184 20.44C15.7584 19.72 16.0784 19.04 16.4784 18.4C16.6384 18.1333 16.8784 17.7867 17.1984 17.36C17.5184 16.9067 17.8651 16.4667 18.2384 16.04C18.6384 15.5867 18.9984 15.2267 19.3184 14.96C19.9851 14.4 20.5984 13.9467 21.1584 13.6C21.7451 13.2533 22.3318 13.0133 22.9184 12.88C23.5051 12.7467 24.1051 12.68 24.7184 12.68C25.3584 12.68 25.8784 12.8933 26.2784 13.32C26.8918 13.5867 27.3184 13.9467 27.5584 14.4C27.8251 14.8533 27.9984 15.44 28.0784 16.16C28.1584 16.96 28.0784 17.9467 27.8384 19.12C27.5984 20.2667 26.9451 21.6 25.8784 23.12C25.2118 24.08 24.5584 24.8267 23.9184 25.36C23.2784 25.8933 22.5718 26.3867 21.7984 26.84C21.2384 27.2133 20.6384 27.44 19.9984 27.52C19.3584 27.6 18.7318 27.6667 18.1184 27.72ZM22.1984 22.84C22.7851 22.3333 23.1984 21.7733 23.4384 21.16C23.7051 20.5467 23.9851 19.8267 24.2784 19C24.3851 18.84 24.4518 18.5733 24.4784 18.2C24.5318 17.8267 24.5451 17.4667 24.5184 17.12C24.4918 16.7467 24.3984 16.5333 24.2384 16.48C23.9984 16.2933 23.7584 16.2533 23.5184 16.36C23.2784 16.44 22.9718 16.6133 22.5984 16.88C21.7984 17.5467 21.0518 18.32 20.3584 19.2C19.6918 20.0533 19.2251 21.1067 18.9584 22.36C18.8784 23.0267 18.9451 23.5333 19.1584 23.88C19.3984 24.2 19.7718 24.2933 20.2784 24.16C20.8118 24 21.4518 23.56 22.1984 22.84ZM31.5706 28.44C31.064 28.5733 30.6106 28.4267 30.2106 28C29.8106 27.6 29.5306 27 29.3706 26.2C29.2106 25.4 29.2373 24.5067 29.4506 23.52C29.584 23.2 29.6906 22.8933 29.7706 22.6C29.8506 22.28 29.8906 22.0267 29.8906 21.84C29.944 21.5733 30.0506 21.1867 30.2106 20.68C30.3706 20.1467 30.544 19.6 30.7306 19.04C30.9173 18.48 31.0906 17.9867 31.2506 17.56C31.4373 17.1067 31.5573 16.8267 31.6106 16.72C31.7173 16.72 31.8106 16.6267 31.8906 16.44C31.9706 16.2533 32.0106 16.0667 32.0106 15.88C32.0106 15.6667 32.0506 15.4267 32.1306 15.16C32.2373 14.8933 32.344 14.7067 32.4506 14.6C32.4506 14.4667 32.4773 14.32 32.5306 14.16C32.6106 13.9733 32.6506 13.8267 32.6506 13.72C32.6506 13.6133 32.6773 13.5067 32.7306 13.4C32.8106 13.2933 32.8506 13.1867 32.8506 13.08C33.0373 12.7333 33.2773 12.1867 33.5706 11.44C33.8906 10.6667 34.224 9.81333 34.5706 8.88C34.944 7.94667 35.2906 7.02667 35.6106 6.12C35.9306 5.21333 36.184 4.45333 36.3706 3.84C36.584 3.2 36.6906 2.81333 36.6906 2.68C36.6906 2.46667 36.7706 2.26667 36.9306 2.08C37.0906 1.89333 37.2773 1.8 37.4906 1.8C37.5706 1.72 37.7573 1.66666 38.0506 1.64C38.344 1.58667 38.544 1.56 38.6506 1.56C38.6506 1.56 38.704 1.61333 38.8106 1.72C38.9173 1.82667 39.0773 1.98666 39.2906 2.2C39.504 2.38667 39.704 2.6 39.8906 2.84C40.104 3.08 40.2106 3.36 40.2106 3.68C40.2106 4.02667 40.1573 4.36 40.0506 4.68C39.9706 5 39.8106 5.44 39.5706 6C39.3306 6.53333 38.9573 7.33333 38.4506 8.4C38.2373 8.93333 38.0106 9.44 37.7706 9.92C37.5306 10.3733 37.4106 10.6533 37.4106 10.76C37.4106 10.8667 37.3573 11.0267 37.2506 11.24C37.1706 11.4533 37.0773 11.72 36.9706 12.04C36.864 12.2533 36.7173 12.5733 36.5306 13C36.344 13.4 36.144 13.84 35.9306 14.32C35.744 14.7733 35.584 15.1733 35.4506 15.52C35.3173 15.84 35.2506 16.0267 35.2506 16.08C35.2506 16.1867 35.2373 16.2933 35.2106 16.4C35.2106 16.5067 35.1573 16.6133 35.0506 16.72C34.944 16.72 34.8773 16.8 34.8506 16.96C34.8506 17.0933 34.8506 17.16 34.8506 17.16C34.8506 17.4267 34.6373 18.1333 34.2106 19.28C33.784 20.7467 33.384 22.0933 33.0106 23.32C32.664 24.5467 32.4906 25.5333 32.4906 26.28C32.4906 26.92 32.384 27.4133 32.1706 27.76C31.984 28.1067 31.784 28.3333 31.5706 28.44ZM40.8 27.68C40.24 27.7867 39.8133 27.76 39.52 27.6C39.2533 27.4133 38.9733 27.1867 38.68 26.92C38.2533 26.7067 37.8667 26.4133 37.52 26.04C37.1733 25.64 36.9067 25.2267 36.72 24.8C36.5333 24.3733 36.4533 24.04 36.48 23.8C36.56 22.8667 36.7733 21.8533 37.12 20.76C37.4933 19.6667 37.96 18.6 38.52 17.56C39.1067 16.52 39.76 15.6 40.48 14.8C41.2267 13.9733 42.0267 13.3733 42.88 13C43.4133 12.7867 43.9867 12.7067 44.6 12.76C45.2133 12.8133 45.6267 13.0667 45.84 13.52C46.24 14.2933 46.1467 14.7867 45.56 15C45.48 15 45.3867 15.04 45.28 15.12C45.1733 15.1733 45.12 15.2533 45.12 15.36C45.2267 15.4133 45.52 15.4267 46 15.4C46.48 15.3467 46.96 15.2667 47.44 15.16C47.9467 15.0267 48.28 14.8933 48.44 14.76C48.6 14.68 48.72 14.64 48.8 14.64C48.88 14.64 49.08 14.6667 49.4 14.72C49.8533 14.8533 50.08 15.0133 50.08 15.2C50.08 15.3067 50.12 15.48 50.2 15.72C50.28 15.9333 50.3733 16.04 50.48 16.04C50.6667 16.0667 50.7067 16.2533 50.6 16.6C50.52 16.9467 50.2133 17.3067 49.68 17.68C49.1733 18 48.8533 18.2133 48.72 18.32C48.6133 18.4 48.6 18.5867 48.68 18.88C48.8933 19.3867 48.88 20 48.64 20.72C48.4 21.44 48 22.1867 47.44 22.96C46.88 23.7333 46.2133 24.4667 45.44 25.16C44.6933 25.8267 43.9067 26.4 43.08 26.88C42.28 27.3333 41.52 27.6 40.8 27.68ZM40.92 24.32C41.0267 24.32 41.2133 24.2667 41.48 24.16C41.7467 24.0267 41.96 23.92 42.12 23.84C42.2267 23.7333 42.36 23.6133 42.52 23.48C42.7067 23.32 42.8533 23.2267 42.96 23.2C43.0667 23.2 43.1333 23.16 43.16 23.08C43.1867 22.9733 43.28 22.7733 43.44 22.48C43.6 22.16 43.92 21.6933 44.4 21.08C44.9333 20.4933 45.28 20.0267 45.44 19.68C45.6 19.3067 45.6133 18.9067 45.48 18.48C45.4533 18.3733 45.3733 18.3067 45.24 18.28C45.1333 18.2533 44.9867 18.1867 44.8 18.08C44.5333 18.08 44.3467 18.1467 44.24 18.28C44.16 18.3867 43.9733 18.32 43.68 18.08L43.04 17.28L42.36 17.96C41.9333 18.3867 41.5467 18.92 41.2 19.56C40.88 20.2 40.6267 20.8533 40.44 21.52C40.2533 22.1867 40.1333 22.7733 40.08 23.28C40.0533 23.68 40.12 23.9467 40.28 24.08C40.44 24.2133 40.6533 24.2933 40.92 24.32ZM62.9722 27.96C62.5722 27.9867 62.1989 28 61.8522 28C61.5322 28 61.2789 27.9467 61.0922 27.84C60.6122 27.44 60.2922 27.12 60.1322 26.88C59.9989 26.64 59.9322 26.3733 59.9322 26.08C59.9589 25.7067 59.9722 25.3333 59.9722 24.96C59.9722 24.56 59.9722 24.2533 59.9722 24.04C59.8655 23.9333 59.6522 24.0533 59.3322 24.4C59.0122 24.7467 58.6389 25.08 58.2122 25.4C57.3855 26.3333 56.6522 27.0133 56.0122 27.44C55.3722 27.84 54.7855 28.0667 54.2522 28.12C53.7189 28.2 53.1855 28.2133 52.6522 28.16C52.1722 28.1067 51.7455 27.8667 51.3722 27.44C51.0255 27.0133 50.7589 26.4933 50.5722 25.88C50.4122 25.2667 50.3589 24.6667 50.4122 24.08C50.5455 22.9867 50.7855 22 51.1322 21.12C51.4789 20.2133 51.9989 19.2667 52.6922 18.28C53.0122 17.8533 53.4389 17.3867 53.9722 16.88C54.5322 16.3733 55.1322 15.9067 55.7722 15.48C56.4122 15.0267 56.9855 14.7067 57.4922 14.52C58.2655 14.1733 58.9055 14.0133 59.4122 14.04C59.9455 14.0667 60.4655 14.1467 60.9722 14.28C61.3455 14.4667 61.6389 14.56 61.8522 14.56C62.0922 14.56 62.2655 14.4267 62.3722 14.16C62.5322 13.9467 62.6522 13.68 62.7322 13.36C62.8122 13.04 62.9455 12.7333 63.1322 12.44L64.0122 9.84C64.3055 9.12 64.6522 8.29333 65.0522 7.36C65.4522 6.42667 65.9055 5.38667 66.4122 4.24C67.0255 3.2 67.5455 2.65333 67.9722 2.6C68.4255 2.54667 68.8922 2.78667 69.3722 3.32C69.6922 3.64 69.8655 4.04 69.8922 4.52C69.9455 4.97333 69.8255 5.50666 69.5322 6.12C69.3455 6.41333 69.1455 6.78667 68.9322 7.24C68.7189 7.66667 68.4655 8.17333 68.1722 8.76C67.8789 9.45333 67.5722 10.1467 67.2522 10.84C66.9589 11.5333 66.6522 12.2933 66.3322 13.12C66.2255 13.5467 66.0789 14.04 65.8922 14.6C65.7322 15.16 65.5989 15.6667 65.4922 16.12C65.4122 16.5467 65.3189 16.9467 65.2122 17.32C65.1322 17.6667 65.0389 17.84 64.9322 17.84C64.7189 18.0267 64.5189 18.4267 64.3322 19.04C64.1455 19.6267 63.9855 20.2533 63.8522 20.92C63.7455 21.5867 63.6522 22.1333 63.5722 22.56C63.5189 22.88 63.4789 23.3333 63.4522 23.92C63.4255 24.48 63.4122 25.0267 63.4122 25.56C63.4122 26.0667 63.4122 26.4133 63.4122 26.6C63.4122 27.1067 63.3722 27.4667 63.2922 27.68C63.2389 27.8667 63.1322 27.96 62.9722 27.96ZM53.9322 24.8C54.5455 24.8 55.1189 24.5467 55.6522 24.04C56.2122 23.5067 56.8255 22.9467 57.4922 22.36C57.8922 21.96 58.3055 21.52 58.7322 21.04C59.1589 20.5333 59.5455 20.04 59.8922 19.56C60.2655 19.08 60.5589 18.6667 60.7722 18.32C60.9855 17.9733 61.0922 17.7467 61.0922 17.64C61.0922 17.5067 60.9855 17.3867 60.7722 17.28C60.5855 17.1733 60.3589 17.0933 60.0922 17.04C59.8255 16.96 59.5855 16.9467 59.3722 17C58.7322 17.1867 58.2122 17.4667 57.8122 17.84C57.4389 18.2133 56.8922 18.8 56.1722 19.6C55.4522 20.48 54.8789 21.32 54.4522 22.12C54.0255 22.92 53.7589 23.5733 53.6522 24.08C53.5722 24.56 53.6655 24.8 53.9322 24.8ZM69.8259 37.52C69.7193 37.5467 69.5593 37.5067 69.3459 37.4C69.1593 37.2933 68.9993 37.1067 68.8659 36.84C68.7326 36.5733 68.6926 36.2267 68.7459 35.8C68.6393 35.4267 68.6526 34.96 68.7859 34.4C68.9459 33.8667 69.2793 33.0667 69.7859 32C70.0526 31.5733 70.2926 31.0667 70.5059 30.48C70.7459 29.8933 71.0126 29.3067 71.3059 28.72C71.4393 28.48 71.6659 28.0667 71.9859 27.48C72.3326 26.8933 72.7059 26.2 73.1059 25.4C73.5326 24.5733 73.9193 23.72 74.2659 22.84C73.5726 23.56 72.9726 24.24 72.4659 24.88C71.9859 25.4933 71.5459 25.9867 71.1459 26.36C70.7726 26.7067 70.3726 26.8667 69.9459 26.84C69.5993 26.76 69.1859 26.5333 68.7059 26.16C68.2259 25.7867 67.9193 25.3733 67.7859 24.92C67.6793 24.3333 67.6393 23.5867 67.6659 22.68C67.7193 21.7733 67.8926 20.4 68.1859 18.56C68.3993 17.6533 68.4926 16.96 68.4659 16.48C68.4659 15.9733 68.3993 15.6 68.2659 15.36C68.1326 15.12 67.9593 14.9067 67.7459 14.72C67.3993 14.4 67.3726 14.0533 67.6659 13.68C67.9593 13.3067 68.2926 13.0267 68.6659 12.84C69.2259 12.7067 69.6659 12.68 69.9859 12.76C70.3326 12.8133 70.6793 13.04 71.0259 13.44C71.2393 13.7867 71.4526 14.16 71.6659 14.56C71.8793 14.96 71.9859 15.5333 71.9859 16.28C71.9859 16.6 71.9726 16.96 71.9459 17.36C71.9193 17.7333 71.8926 18.08 71.8659 18.4C71.8393 18.72 71.8126 18.9733 71.7859 19.16C71.5193 20.1467 71.2793 21 71.0659 21.72C70.8526 22.44 70.8126 22.8 70.9459 22.8C71.4793 22.3733 71.9326 21.96 72.3059 21.56C72.7059 21.16 73.1326 20.68 73.5859 20.12C74.0393 19.56 74.5993 18.8267 75.2659 17.92C75.5059 17.4667 75.7459 17.0267 75.9859 16.6C76.2259 16.1733 76.4259 15.7333 76.5859 15.28C76.7459 14.9333 76.9593 14.5733 77.2259 14.2C77.4926 13.8 77.6793 13.5867 77.7859 13.56C77.9193 13.5067 78.1059 13.52 78.3459 13.6C78.5859 13.68 78.8126 13.7733 79.0259 13.88C79.2659 13.96 79.3859 14.0267 79.3859 14.08C79.4126 14.1067 79.5459 14.1333 79.7859 14.16C80.0259 14.1867 80.2659 14.2133 80.5059 14.24C80.7459 14.24 80.8659 14.28 80.8659 14.36C80.8659 14.4133 80.7859 14.6133 80.6259 14.96C80.4926 15.3067 80.3326 15.6933 80.1459 16.12C79.9593 16.5467 79.7859 16.9333 79.6259 17.28C79.4926 17.6 79.4393 17.7867 79.4659 17.84C79.5193 17.8933 79.4793 18.0933 79.3459 18.44C79.2126 18.76 79.0526 19.12 78.8659 19.52C78.7059 19.92 78.5593 20.28 78.4259 20.6C78.1593 21.48 77.8526 22.36 77.5059 23.24C77.1593 24.0933 76.7459 24.9467 76.2659 25.8C76.1059 26.12 75.8659 26.6133 75.5459 27.28C75.2526 27.9467 74.9593 28.6 74.6659 29.24C74.3993 29.9067 74.1859 30.4133 74.0259 30.76C73.9193 30.9733 73.7593 31.3067 73.5459 31.76C73.3593 32.24 73.1459 32.76 72.9059 33.32C72.6926 33.88 72.4793 34.4 72.2659 34.88C72.0526 35.3867 71.8926 35.7733 71.7859 36.04C71.7326 36.5467 71.6126 36.92 71.4259 37.16C71.1859 37.4 70.8526 37.52 70.4259 37.52C70.0259 37.52 69.8259 37.52 69.8259 37.52ZM99.8588 27.04C99.6721 26.9867 99.3788 26.8133 98.9788 26.52C98.5788 26.2267 98.2188 25.7867 97.8988 25.2C97.6054 24.6133 97.4721 23.8533 97.4988 22.92C97.5254 22.12 97.5788 21.56 97.6588 21.24C97.7654 20.8933 97.7254 20.7067 97.5388 20.68C97.4054 20.6533 97.1388 20.7733 96.7388 21.04C96.3388 21.3067 95.8188 21.7333 95.1788 22.32C94.5388 22.9067 93.7654 23.68 92.8588 24.64C92.5388 24.9067 92.1788 25.24 91.7788 25.64C91.4054 26.0133 91.0188 26.2933 90.6188 26.48C90.2454 26.6667 89.9121 26.6267 89.6188 26.36L89.2188 26C89.0321 25.84 88.8721 25.6267 88.7388 25.36C88.6054 25.0933 88.5654 24.8667 88.6188 24.68L89.7388 21.56C90.0588 20.8667 90.2721 20.36 90.3788 20.04C90.5121 19.72 90.5654 19.52 90.5388 19.44C90.5388 19.36 90.4721 19.3333 90.3388 19.36C90.1788 19.3867 89.9521 19.5333 89.6588 19.8C89.3654 20.04 89.1654 20.24 89.0588 20.4C88.9521 20.4 88.8054 20.5067 88.6188 20.72C88.4588 20.9333 88.2988 21.12 88.1388 21.28C87.9788 21.44 87.6988 21.7467 87.2988 22.2C86.8988 22.6267 86.4721 23.08 86.0188 23.56C85.6721 23.88 85.2721 24.3067 84.8188 24.84C84.3654 25.3733 83.9654 25.8533 83.6188 26.28C83.2721 26.7067 83.0588 26.92 82.9788 26.92C82.4988 26.8933 82.0588 26.7333 81.6588 26.44C81.2854 26.1467 81.0321 25.7867 80.8988 25.36C80.7388 25.0667 80.7254 24.5333 80.8588 23.76C80.9921 22.96 81.2454 21.6933 81.6188 19.96C81.7254 19.56 81.8188 19.2133 81.8988 18.92C82.0054 18.6267 82.1121 18.3333 82.2188 18.04C82.3254 17.7467 82.4454 17.4133 82.5788 17.04C82.7388 16.6667 82.9388 16.2133 83.1788 15.68C83.3121 15.3067 83.3654 14.96 83.3388 14.64C83.3121 14.2933 83.2854 14.0133 83.2588 13.8C83.2588 13.4 83.3788 13.08 83.6188 12.84C83.8854 12.6 84.1788 12.44 84.4988 12.36C84.8188 12.2533 85.0721 12.2267 85.2588 12.28C86.0054 12.36 86.5121 12.6267 86.7788 13.08C87.0454 13.5333 87.1921 13.9733 87.2188 14.4C87.2454 14.8 87.1921 15.16 87.0588 15.48C86.9254 15.8 86.8188 16.0667 86.7388 16.28L86.2988 17.36C86.0321 17.9733 85.8321 18.4267 85.6988 18.72C85.5921 18.9867 85.5254 19.1733 85.4988 19.28C85.4988 19.36 85.4988 19.44 85.4988 19.52C85.5254 19.6 85.6454 19.56 85.8588 19.4C86.0721 19.24 86.3254 19.0267 86.6188 18.76C86.9388 18.4667 87.2321 18.2133 87.4987 18C87.9788 17.6 88.4854 17.2 89.0188 16.8C89.5788 16.3733 90.1254 16 90.6588 15.68C91.1921 15.36 91.6321 15.1467 91.9788 15.04C92.4321 15.12 92.8454 15.3467 93.2188 15.72C93.6188 16.0933 93.8721 16.4133 93.9788 16.68C94.1121 17.08 94.1254 17.44 94.0188 17.76C93.9388 18.08 93.8721 18.3733 93.8188 18.64C93.7921 18.7467 93.7388 18.9467 93.6588 19.24C93.5788 19.5333 93.4988 19.8133 93.4188 20.08C93.3388 20.32 93.2988 20.44 93.2988 20.44C93.2988 20.44 93.3788 20.36 93.5388 20.2C93.6988 20.04 93.9121 19.8533 94.1788 19.64C94.4454 19.4 94.7121 19.1867 94.9788 19C96.3121 17.9867 97.3654 17.3467 98.1388 17.08C98.9388 16.7867 99.6188 17.0133 100.179 17.76C100.499 18.0533 100.699 18.4533 100.779 18.96C100.885 19.4667 100.939 20.1467 100.939 21C100.965 21.3467 100.992 21.7333 101.019 22.16C101.072 22.5867 101.125 22.96 101.179 23.28C101.259 23.6 101.325 23.8 101.379 23.88C101.459 23.9867 101.605 24.0933 101.819 24.2C102.032 24.28 102.232 24.3467 102.419 24.4C102.792 24.5867 102.992 24.9333 103.019 25.44C103.072 25.92 102.885 26.2933 102.459 26.56C102.059 26.8 101.632 26.9467 101.179 27C100.752 27.0533 100.312 27.0667 99.8588 27.04ZM102.712 38.28C102.126 38.3867 101.726 38.4 101.512 38.32C101.299 38.24 101.006 38.1067 100.632 37.92C100.339 37.7067 100.126 37.5467 99.9922 37.44C99.8589 37.3333 99.7655 37.2267 99.7122 37.12C99.4455 36.56 99.4055 36.1467 99.5922 35.88C99.7789 35.6133 100.046 35.44 100.392 35.36C100.766 35.3067 101.086 35.28 101.352 35.28C101.539 35.3867 101.846 35.44 102.272 35.44C102.726 35.44 103.006 35.3867 103.112 35.28C103.112 35.28 103.232 35.2 103.472 35.04C103.739 34.9067 104.086 34.8 104.512 34.72C105.339 34.32 105.992 33.9067 106.472 33.48C106.952 33.08 107.486 32.3867 108.072 31.4C108.312 31.0267 108.566 30.5867 108.832 30.08C109.099 29.6 109.286 29.12 109.392 28.64C109.606 28.1067 109.846 27.3867 110.112 26.48C110.406 25.5733 110.659 24.68 110.872 23.8C111.086 22.8933 111.206 22.2133 111.232 21.76C111.392 20.2667 111.699 18.8267 112.152 17.44C112.606 16.0267 112.966 14.5333 113.232 12.96C113.392 12.5867 113.512 12.3733 113.592 12.32C113.672 12.24 113.846 12.2 114.112 12.2C114.406 12.2 114.752 12.2933 115.152 12.48C115.552 12.64 115.846 12.8667 116.032 13.16C116.299 13.6667 116.419 14.2667 116.392 14.96C116.392 15.6267 116.219 16.2133 115.872 16.72C115.606 17.0933 115.366 17.68 115.152 18.48C114.966 19.2533 114.779 20.2267 114.592 21.4C114.459 21.9867 114.312 22.68 114.152 23.48C114.019 24.2533 113.872 25.12 113.712 26.08C113.606 26.3467 113.459 26.76 113.272 27.32C113.086 27.8533 112.966 28.28 112.912 28.6C112.886 28.7067 112.806 28.92 112.672 29.24C112.539 29.56 112.406 29.8667 112.272 30.16C112.139 30.48 112.046 30.6933 111.992 30.8C110.712 33.3867 109.232 35.2533 107.552 36.4C105.899 37.5467 104.286 38.1733 102.712 38.28ZM106.072 26.96C105.779 26.96 105.472 26.8 105.152 26.48C104.859 26.16 104.659 25.9067 104.552 25.72C104.446 25.4533 104.246 25.2 103.952 24.96C103.659 24.72 103.406 24.4267 103.192 24.08C102.979 23.7333 102.926 23.3067 103.032 22.8C103.139 22.4533 103.299 21.9333 103.512 21.24C103.726 20.52 103.979 19.7333 104.272 18.88C104.566 18 104.859 17.1333 105.152 16.28C105.472 15.4267 105.766 14.6667 106.032 14C106.299 13.3333 106.526 12.8667 106.712 12.6C106.872 12.3867 107.126 12.2267 107.472 12.12C107.819 12.0133 108.166 11.9867 108.512 12.04C108.859 12.0933 109.112 12.2533 109.272 12.52C109.566 12.8933 109.726 13.2667 109.752 13.64C109.806 13.9867 109.619 14.5467 109.192 15.32C109.086 15.6133 108.952 15.9333 108.792 16.28C108.632 16.6 108.552 16.8133 108.552 16.92C108.526 16.9733 108.472 17.16 108.392 17.48C108.339 17.7733 108.272 18.0533 108.192 18.32C108.112 18.5867 108.032 18.72 107.952 18.72C107.846 18.8267 107.726 19.1067 107.592 19.56C107.486 20.0133 107.379 20.52 107.272 21.08C107.192 21.6133 107.139 22.0933 107.112 22.52C107.086 22.92 107.126 23.12 107.232 23.12C108.059 23.12 108.859 22.8667 109.632 22.36C110.406 21.8267 111.246 20.9467 112.152 19.72L112.512 23.48C112.139 23.6667 111.792 23.8667 111.472 24.08C111.152 24.2667 110.859 24.4933 110.592 24.76C110.512 24.8667 110.326 25.0133 110.032 25.2C109.739 25.3867 109.446 25.56 109.152 25.72C108.886 25.8533 108.712 25.92 108.632 25.92C108.632 25.92 108.592 25.9333 108.512 25.96C108.459 25.96 108.432 26.0133 108.432 26.12C108.432 26.1733 108.259 26.28 107.912 26.44C107.566 26.5733 107.206 26.6933 106.832 26.8C106.459 26.9067 106.206 26.96 106.072 26.96ZM118.825 27.4C118.638 27.4 118.385 27.2667 118.065 27C117.772 26.7333 117.598 26.4933 117.545 26.28C117.465 26.0667 117.465 25.76 117.545 25.36C117.652 24.9333 117.798 24.44 117.985 23.88C118.198 23 118.345 22.36 118.425 21.96C118.505 21.56 118.585 21.2133 118.665 20.92C118.745 20.6267 118.852 20.2 118.985 19.64C119.145 19.2933 119.265 18.96 119.345 18.64C119.452 18.2933 119.558 17.9467 119.665 17.6C119.798 17.2533 119.945 16.9067 120.105 16.56C120.292 15.8667 120.518 15.2133 120.785 14.6C121.078 13.96 121.358 13.4267 121.625 13C121.678 12.92 121.798 12.7733 121.985 12.56C122.172 12.3467 122.318 12.24 122.425 12.24C122.638 12.0267 122.932 11.96 123.305 12.04C123.678 12.0933 123.998 12.2267 124.265 12.44C124.585 12.7867 124.758 13.2 124.785 13.68C124.838 14.1333 124.652 14.7733 124.225 15.6C123.905 16.4267 123.598 17.08 123.305 17.56C123.038 18.0133 122.772 18.5467 122.505 19.16C122.798 18.7333 123.158 18.2933 123.585 17.84C124.012 17.3867 124.345 17.0267 124.585 16.76C124.932 16.3867 125.252 16.0933 125.545 15.88C125.865 15.64 126.292 15.3467 126.825 15C127.278 14.68 127.732 14.3867 128.185 14.12C128.665 13.8533 129.238 13.7733 129.905 13.88C130.172 13.8533 130.452 13.9867 130.745 14.28C131.065 14.5733 131.305 14.96 131.465 15.44C131.652 15.8933 131.652 16.3867 131.465 16.92C130.852 16.7867 130.305 16.8133 129.825 17C129.345 17.16 128.932 17.36 128.585 17.6C128.265 17.84 128.012 18.0267 127.825 18.16C127.558 18.32 127.252 18.5333 126.905 18.8C126.558 19.04 126.185 19.32 125.785 19.64C125.385 19.9333 124.958 20.2667 124.505 20.64C123.865 21.1733 123.385 21.64 123.065 22.04C122.745 22.44 122.492 22.8667 122.305 23.32C122.145 23.72 121.945 24.2 121.705 24.76C121.465 25.32 121.238 25.8267 121.025 26.28C120.812 26.7067 120.638 26.9733 120.505 27.08C120.372 27.3467 120.092 27.4933 119.665 27.52C119.265 27.5467 118.985 27.5067 118.825 27.4ZM144.967 29.64C144.78 29.3467 144.46 29.16 144.007 29.08C143.553 29 142.86 28.9867 141.927 29.04C141.553 29.0933 141.167 29.0667 140.767 28.96C140.367 28.8533 140.047 28.6933 139.807 28.48C139.567 28.2667 139.473 28.0533 139.527 27.84C139.553 27.52 139.927 27.1733 140.647 26.8C141.367 26.4267 142.3 26.2267 143.447 26.2L145.127 26.16L145.527 25.36C145.633 25.0667 145.713 24.7467 145.767 24.4C145.847 24.0533 145.98 23.5733 146.167 22.96C146.273 22.5867 146.433 22.0667 146.647 21.4C146.86 20.7333 147.087 20.0267 147.327 19.28C147.567 18.5067 147.78 17.8133 147.967 17.2C148.153 16.5867 148.273 16.16 148.327 15.92C148.433 15.68 148.58 15.28 148.767 14.72C148.953 14.1333 149.127 13.5467 149.287 12.96C149.473 12.3467 149.593 11.9067 149.647 11.64C150.34 9.53333 150.793 8.06667 151.007 7.24C151.22 6.38667 151.273 5.94667 151.167 5.92C151.06 5.92 150.807 5.93333 150.407 5.96C150.007 5.98667 149.567 6.02667 149.087 6.08C148.607 6.10666 148.18 6.14667 147.807 6.2C147.433 6.25333 147.207 6.30667 147.127 6.36C146.993 6.54667 146.767 6.52 146.447 6.28C146.127 6.01333 145.927 5.74667 145.847 5.48C145.82 5.24 145.82 5.01333 145.847 4.8C145.873 4.58667 145.953 4.44 146.087 4.36C146.273 4.2 146.66 4.02667 147.247 3.84C147.833 3.62666 148.487 3.44 149.207 3.28C149.953 3.12 150.633 3 151.247 2.92C151.7 2.86667 152.153 2.77333 152.607 2.64C153.06 2.48 153.42 2.29333 153.687 2.08C153.927 2 154.153 1.93333 154.367 1.88C154.607 1.82667 154.847 1.81333 155.087 1.84C155.3 1.97333 155.66 2.04 156.167 2.04C156.7 2.04 157.26 2.02666 157.847 2C159.34 1.86667 160.38 1.92 160.967 2.16C161.58 2.37333 161.98 2.66667 162.167 3.04C162.3 3.54667 162.273 3.97333 162.087 4.32C161.9 4.64 161.58 4.78667 161.127 4.76C160.887 4.81333 160.553 4.86666 160.127 4.92C159.7 4.94667 159.14 4.97333 158.447 5C156.687 5.16 155.74 5.34667 155.607 5.56C155.5 5.66666 155.407 5.77333 155.327 5.88C155.273 5.98667 155.193 6.10667 155.087 6.24C155.113 6.34667 155.047 6.66667 154.887 7.2C154.753 7.70666 154.58 8.25333 154.367 8.84C154.26 9.18667 154.1 9.68 153.887 10.32C153.673 10.96 153.447 11.6267 153.207 12.32C152.993 12.9867 152.793 13.6 152.607 14.16C152.42 14.6933 152.287 15.0533 152.207 15.24C152.1 15.48 152.007 15.7467 151.927 16.04C151.873 16.3067 151.833 16.5067 151.807 16.64C151.433 17.9467 151.113 19.04 150.847 19.92C150.607 20.8 150.393 21.5733 150.207 22.24C150.02 22.88 149.847 23.5067 149.687 24.12C149.527 24.7067 149.34 25.3733 149.127 26.12C149.127 26.12 149.353 26.1067 149.807 26.08C150.26 26.0267 150.833 25.9733 151.527 25.92C152.78 25.7867 153.633 25.7067 154.087 25.68C154.54 25.6533 154.807 25.6933 154.887 25.8C154.967 25.88 155.047 26.04 155.127 26.28C155.66 27 155.62 27.6 155.007 28.08C154.42 28.56 153.38 28.7867 151.887 28.76C150.5 28.8133 149.473 28.8533 148.807 28.88C148.167 28.9333 147.753 29 147.567 29.08C147.38 29.16 147.287 29.2933 147.287 29.48C147.313 29.9067 147.047 30.16 146.487 30.24C145.953 30.3467 145.447 30.1467 144.967 29.64ZM160.473 25.88C160.286 25.72 160.033 25.24 159.713 24.44C159.419 23.64 159.126 22.7067 158.833 21.64C158.566 20.5733 158.353 19.5867 158.193 18.68C158.086 18.1467 157.966 17.6933 157.833 17.32C157.726 16.9467 157.633 16.64 157.553 16.4C157.419 15.92 157.459 15.4133 157.673 14.88C157.913 14.3467 158.193 13.9867 158.513 13.8C158.646 13.72 158.886 13.6667 159.233 13.64C159.606 13.5867 159.846 13.5733 159.953 13.6C160.273 13.7067 160.566 14.2 160.833 15.08C161.099 15.9333 161.339 17.0667 161.553 18.48C161.659 19.3067 161.739 19.92 161.793 20.32C161.873 20.6933 161.913 20.9333 161.913 21.04C162.019 21.2533 162.086 21.52 162.113 21.84C162.166 22.1333 162.299 22.1733 162.513 21.96C162.619 21.8533 162.779 21.6667 162.993 21.4C163.233 21.1333 163.513 20.7867 163.833 20.36C164.393 19.6133 164.833 19 165.153 18.52C165.499 18.0133 165.886 17.4933 166.313 16.96C166.499 16.6933 166.753 16.4 167.073 16.08C167.393 15.76 167.713 15.4667 168.033 15.2C168.353 14.9067 168.619 14.7333 168.833 14.68C169.473 14.5733 169.859 14.8133 169.993 15.4C170.153 15.96 169.966 16.6133 169.433 17.36C169.219 17.68 169.046 17.9867 168.913 18.28C168.806 18.5467 168.699 18.7333 168.593 18.84C168.379 19.2667 168.046 19.8133 167.593 20.48C167.139 21.12 166.699 21.72 166.273 22.28C165.846 22.8133 165.553 23.16 165.393 23.32C165.286 23.4267 165.046 23.6267 164.673 23.92C164.326 24.2133 163.993 24.5867 163.673 25.04C163.033 25.6533 162.419 26.0267 161.833 26.16C161.246 26.2933 160.793 26.2 160.473 25.88ZM171.124 27.16C171.017 26.9467 170.777 26.7333 170.404 26.52C170.057 26.3067 169.884 26.1467 169.884 26.04C169.884 25.9333 169.817 25.7733 169.684 25.56C169.577 25.32 169.471 25.1467 169.364 25.04C169.231 24.88 169.271 24.4933 169.484 23.88C169.697 23.24 170.017 22.4667 170.444 21.56C170.871 20.6533 171.337 19.7333 171.844 18.8C172.057 18.5867 172.271 18.3067 172.484 17.96C172.697 17.6133 172.857 17.3867 172.964 17.28C172.964 17.1733 173.004 17.08 173.084 17C173.164 16.8933 173.257 16.84 173.364 16.84L173.684 16.2C173.737 16.0933 173.897 15.88 174.164 15.56C174.457 15.24 174.804 14.8933 175.204 14.52C175.604 14.12 176.004 13.7467 176.404 13.4C176.831 13.0533 177.177 12.8 177.444 12.64C178.004 12.2667 178.577 12.0933 179.164 12.12C179.777 12.1467 180.297 12.3333 180.724 12.68C180.804 12.76 180.977 12.92 181.244 13.16C181.537 13.4 181.857 13.6667 182.204 13.96C182.577 14.2533 182.897 14.52 183.164 14.76L184.644 16.08L183.964 18.08C183.617 19.1467 183.524 20.08 183.684 20.88C183.844 21.68 184.097 22.3733 184.444 22.96C184.577 23.2533 184.751 23.48 184.964 23.64C185.204 23.8 185.511 23.9067 185.884 23.96C186.097 23.9867 186.297 24.0667 186.484 24.2C186.671 24.3333 186.764 24.5467 186.764 24.84C186.764 25.48 186.644 25.9467 186.404 26.24C186.191 26.5067 185.951 26.6667 185.684 26.72C184.804 26.8267 183.964 26.7333 183.164 26.44C182.364 26.1467 181.644 25.3867 181.004 24.16C180.897 24 180.751 23.7067 180.564 23.28C180.404 22.8267 180.311 22.5333 180.284 22.4C180.177 22.5333 180.031 22.7067 179.844 22.92C179.684 23.1067 179.524 23.28 179.364 23.44C177.471 25.36 175.844 26.6133 174.484 27.2C173.151 27.76 172.031 27.7467 171.124 27.16ZM173.324 23.84C173.511 23.8667 173.804 23.7733 174.204 23.56C174.604 23.32 175.137 22.9333 175.804 22.4C176.711 21.6267 177.457 20.9867 178.044 20.48C178.631 19.9733 179.204 19.32 179.764 18.52L180.644 17.08C180.377 16.4667 180.137 16.0667 179.924 15.88C179.711 15.6933 179.497 15.6 179.284 15.6C178.937 15.6 178.524 15.8267 178.044 16.28C177.564 16.7067 177.017 17.3467 176.404 18.2C175.817 19.0267 175.151 20.0667 174.404 21.32C174.057 21.9067 173.791 22.48 173.604 23.04C173.417 23.5733 173.324 23.84 173.324 23.84ZM191.776 28.24C190.922 28.24 190.136 28.0533 189.416 27.68C188.722 27.28 188.162 26.8 187.736 26.24C187.309 25.6533 187.096 25.0933 187.096 24.56C187.096 24.32 187.136 24.1467 187.216 24.04C187.322 23.9333 187.469 23.88 187.656 23.88C187.789 23.9067 187.949 23.9733 188.136 24.08C188.322 24.1867 188.509 24.3067 188.696 24.44C189.122 24.7333 189.589 24.92 190.096 25C190.602 25.08 191.056 25.0533 191.456 24.92C191.856 24.76 192.082 24.52 192.136 24.2C192.136 24.0933 192.082 23.8667 191.976 23.52C191.869 23.1733 191.736 22.84 191.576 22.52C190.909 21.5333 190.496 20.6 190.336 19.72C190.176 18.8133 190.069 17.9067 190.016 17C190.016 16.6267 190.189 16.2133 190.536 15.76C190.882 15.28 191.309 14.8133 191.816 14.36C192.376 13.88 192.989 13.4267 193.656 13C194.349 12.5733 195.029 12.2133 195.696 11.92C196.362 11.6267 196.922 11.4533 197.376 11.4C197.856 11.4 198.362 11.4267 198.896 11.48C199.456 11.5067 199.829 11.6 200.016 11.76C200.389 12.0533 200.736 12.5333 201.056 13.2C201.376 13.8667 201.536 14.4267 201.536 14.88C201.536 15.0933 201.416 15.36 201.176 15.68C200.962 15.9733 200.762 16.3067 200.576 16.68C200.469 16.8667 200.376 17.0667 200.296 17.28C200.216 17.4933 200.122 17.7067 200.016 17.92C199.856 18.2933 199.562 18.4533 199.136 18.4C198.736 18.32 198.362 18.1067 198.016 17.76C197.669 17.3867 197.496 16.96 197.496 16.48C197.496 16.08 197.616 15.7333 197.856 15.44C198.096 15.1467 198.216 14.9467 198.216 14.84C198.216 14.7867 198.189 14.7467 198.136 14.72C198.082 14.6933 197.989 14.68 197.856 14.68C197.669 14.68 197.362 14.76 196.936 14.92C196.536 15.0533 196.109 15.2533 195.656 15.52C195.202 15.7867 194.789 16.1067 194.416 16.48C194.149 16.7733 193.922 17.0933 193.736 17.44C193.576 17.76 193.496 18.1067 193.496 18.48C193.496 18.8533 193.562 19.2933 193.696 19.8C193.856 20.28 194.029 20.68 194.216 21C194.269 21.0533 194.349 21.2 194.456 21.44C194.589 21.6533 194.736 21.92 194.896 22.24C195.882 24.2667 196.042 25.7733 195.376 26.76C194.736 27.7467 193.536 28.24 191.776 28.24ZM204.24 37.52C204.133 37.5467 203.973 37.5067 203.76 37.4C203.573 37.2933 203.413 37.1067 203.28 36.84C203.147 36.5733 203.107 36.2267 203.16 35.8C203.053 35.4267 203.067 34.96 203.2 34.4C203.36 33.8667 203.693 33.0667 204.2 32C204.467 31.5733 204.707 31.0667 204.92 30.48C205.16 29.8933 205.427 29.3067 205.72 28.72C205.853 28.48 206.08 28.0667 206.4 27.48C206.747 26.8933 207.12 26.2 207.52 25.4C207.947 24.5733 208.333 23.72 208.68 22.84C207.987 23.56 207.387 24.24 206.88 24.88C206.4 25.4933 205.96 25.9867 205.56 26.36C205.187 26.7067 204.787 26.8667 204.36 26.84C204.013 26.76 203.6 26.5333 203.12 26.16C202.64 25.7867 202.333 25.3733 202.2 24.92C202.093 24.3333 202.053 23.5867 202.08 22.68C202.133 21.7733 202.307 20.4 202.6 18.56C202.813 17.6533 202.907 16.96 202.88 16.48C202.88 15.9733 202.813 15.6 202.68 15.36C202.547 15.12 202.373 14.9067 202.16 14.72C201.813 14.4 201.787 14.0533 202.08 13.68C202.373 13.3067 202.707 13.0267 203.08 12.84C203.64 12.7067 204.08 12.68 204.4 12.76C204.747 12.8133 205.093 13.04 205.44 13.44C205.653 13.7867 205.867 14.16 206.08 14.56C206.293 14.96 206.4 15.5333 206.4 16.28C206.4 16.6 206.387 16.96 206.36 17.36C206.333 17.7333 206.307 18.08 206.28 18.4C206.253 18.72 206.227 18.9733 206.2 19.16C205.933 20.1467 205.693 21 205.48 21.72C205.267 22.44 205.227 22.8 205.36 22.8C205.893 22.3733 206.347 21.96 206.72 21.56C207.12 21.16 207.547 20.68 208 20.12C208.453 19.56 209.013 18.8267 209.68 17.92C209.92 17.4667 210.16 17.0267 210.4 16.6C210.64 16.1733 210.84 15.7333 211 15.28C211.16 14.9333 211.373 14.5733 211.64 14.2C211.907 13.8 212.093 13.5867 212.2 13.56C212.333 13.5067 212.52 13.52 212.76 13.6C213 13.68 213.227 13.7733 213.44 13.88C213.68 13.96 213.8 14.0267 213.8 14.08C213.827 14.1067 213.96 14.1333 214.2 14.16C214.44 14.1867 214.68 14.2133 214.92 14.24C215.16 14.24 215.28 14.28 215.28 14.36C215.28 14.4133 215.2 14.6133 215.04 14.96C214.907 15.3067 214.747 15.6933 214.56 16.12C214.373 16.5467 214.2 16.9333 214.04 17.28C213.907 17.6 213.853 17.7867 213.88 17.84C213.933 17.8933 213.893 18.0933 213.76 18.44C213.627 18.76 213.467 19.12 213.28 19.52C213.12 19.92 212.973 20.28 212.84 20.6C212.573 21.48 212.267 22.36 211.92 23.24C211.573 24.0933 211.16 24.9467 210.68 25.8C210.52 26.12 210.28 26.6133 209.96 27.28C209.667 27.9467 209.373 28.6 209.08 29.24C208.813 29.9067 208.6 30.4133 208.44 30.76C208.333 30.9733 208.173 31.3067 207.96 31.76C207.773 32.24 207.56 32.76 207.32 33.32C207.107 33.88 206.893 34.4 206.68 34.88C206.467 35.3867 206.307 35.7733 206.2 36.04C206.147 36.5467 206.027 36.92 205.84 37.16C205.6 37.4 205.267 37.52 204.84 37.52C204.44 37.52 204.24 37.52 204.24 37.52ZM225.353 28.24C225.166 28.3467 224.913 28.3067 224.593 28.12C224.299 27.9333 224.006 27.6533 223.713 27.28C223.526 26.96 223.379 26.64 223.273 26.32C223.193 25.9733 223.153 25.4667 223.153 24.8C223.179 24.2667 223.179 23.9067 223.153 23.72C223.153 23.5067 223.033 23.4933 222.793 23.68C222.579 23.84 222.139 24.24 221.473 24.88C220.806 25.5467 220.166 26.12 219.553 26.6C218.966 27.0533 218.486 27.2667 218.113 27.24C217.926 27.24 217.673 27.12 217.353 26.88C217.033 26.64 216.726 26.3467 216.433 26C216.139 25.6267 215.926 25.28 215.793 24.96C215.633 24.32 215.619 23.4933 215.753 22.48C215.913 21.4667 216.166 20.4133 216.513 19.32C216.859 18.2 217.246 17.16 217.673 16.2C218.126 15.2133 218.566 14.4267 218.993 13.84C219.446 13.2267 219.833 12.9333 220.153 12.96C220.606 13.0133 220.993 13.24 221.313 13.64C221.659 14.0133 221.926 14.4267 222.113 14.88C222.219 15.0667 222.259 15.2267 222.233 15.36C222.233 15.4933 222.126 15.6533 221.913 15.84C221.673 16.16 221.379 16.6267 221.033 17.24C220.713 17.8267 220.379 18.4667 220.033 19.16C219.713 19.8533 219.419 20.52 219.153 21.16C218.913 21.7733 218.739 22.28 218.633 22.68C218.526 23.08 218.526 23.28 218.633 23.28C219.006 23.28 219.353 23.1867 219.673 23C219.993 22.7867 220.393 22.4533 220.873 22C221.433 21.44 221.926 20.88 222.353 20.32C222.779 19.7333 223.219 19.0667 223.673 18.32C224.019 17.7867 224.379 17.2 224.753 16.56C225.153 15.92 225.406 15.4667 225.513 15.2C225.886 14.5067 226.166 13.9867 226.353 13.64C226.539 13.2933 226.766 13.08 227.033 13C227.166 13 227.353 13 227.593 13C227.833 13 227.953 13 227.953 13C228.113 13.0267 228.299 13.1467 228.513 13.36C228.726 13.4667 228.939 13.6133 229.153 13.8C229.393 13.9867 229.513 14.1467 229.513 14.28C229.406 14.5467 229.233 14.9467 228.993 15.48C228.779 15.9867 228.619 16.36 228.513 16.6C228.006 17.7467 227.513 18.88 227.033 20C226.579 21.0933 226.246 22.2133 226.033 23.36C225.979 23.7333 225.966 24.1733 225.993 24.68C226.046 25.16 226.126 25.5067 226.233 25.72C226.313 25.88 226.406 26.0667 226.513 26.28C226.646 26.4667 226.793 26.6267 226.953 26.76C227.193 26.92 227.179 27.12 226.913 27.36C226.673 27.6 226.366 27.8133 225.993 28C225.646 28.16 225.433 28.24 225.353 28.24ZM231.558 28.12C231.344 28.04 231.064 27.8267 230.718 27.48C230.371 27.1067 230.064 26.7067 229.798 26.28C229.531 25.8267 229.398 25.4533 229.398 25.16C229.531 24.8667 229.704 24.3467 229.918 23.6C230.158 22.8533 230.424 22.0133 230.718 21.08C230.931 20.7867 231.091 20.4533 231.198 20.08C231.331 19.68 231.451 19.32 231.558 19C231.771 18.52 232.011 17.9733 232.278 17.36C232.544 16.7467 232.798 16.12 233.038 15.48C233.304 14.84 233.544 14.28 233.758 13.8C234.131 13 234.438 12.3067 234.678 11.72C234.944 11.1067 235.198 10.5067 235.438 9.92C235.704 9.33333 235.984 8.68 236.278 7.96C236.678 7.13333 237.038 6.32 237.358 5.52C237.704 4.69333 237.998 3.96 238.238 3.32C238.504 2.68 238.664 2.22667 238.718 1.96C238.691 1.74667 238.718 1.6 238.798 1.52C238.878 1.41333 238.984 1.34667 239.118 1.32C239.251 1.24 239.464 1.18667 239.758 1.16C240.051 1.13333 240.251 1.12 240.358 1.12C240.678 1.17333 240.998 1.44 241.318 1.92C241.664 2.37333 241.838 2.76 241.838 3.08C241.838 3.50666 241.624 4.30666 241.198 5.48C240.798 6.62667 240.211 7.98667 239.438 9.56C238.504 11.56 237.798 13.1067 237.318 14.2C236.864 15.2933 236.558 16.0667 236.398 16.52C236.238 16.9733 236.171 17.2667 236.198 17.4C236.198 17.4 236.304 17.36 236.518 17.28C236.731 17.2 237.051 17.0133 237.478 16.72C237.771 16.5333 238.104 16.2933 238.478 16C238.851 15.7067 239.211 15.44 239.558 15.2C239.931 14.96 240.224 14.8133 240.438 14.76C240.571 14.6533 240.758 14.52 240.998 14.36C241.238 14.2 241.464 14.0533 241.678 13.92C242.184 13.5467 242.584 13.4267 242.878 13.56C243.171 13.6933 243.438 13.92 243.678 14.24C243.971 14.5867 244.078 14.96 243.998 15.36C243.944 15.7333 243.531 16.2267 242.758 16.84C242.171 17.2667 241.544 17.68 240.878 18.08C240.211 18.4533 239.598 18.7867 239.038 19.08C238.504 19.3733 238.118 19.6133 237.878 19.8C237.878 19.8 237.998 19.9733 238.238 20.32C238.478 20.6667 238.704 21 238.918 21.32C239.131 21.7467 239.398 22.2933 239.718 22.96C240.038 23.6 240.278 24.0533 240.438 24.32C240.731 24.7467 241.024 25.0267 241.318 25.16C241.638 25.2933 242.104 25.2533 242.718 25.04C243.118 24.9333 243.451 24.9467 243.718 25.08C244.011 25.1867 244.251 25.3733 244.438 25.64C244.544 25.8533 244.598 26.0667 244.598 26.28C244.598 26.4933 244.424 26.7467 244.078 27.04C243.331 27.5467 242.598 27.9733 241.878 28.32C241.184 28.6933 240.518 28.6667 239.878 28.24C239.318 27.8133 238.784 27.3333 238.278 26.8C237.798 26.24 237.251 25.56 236.638 24.76C236.638 24.6533 236.558 24.4267 236.398 24.08C236.238 23.7333 236.131 23.5333 236.078 23.48C235.971 23.2667 235.851 23.08 235.718 22.92C235.611 22.7333 235.558 22.64 235.558 22.64C235.478 22.3467 235.371 22.1067 235.238 21.92C235.131 21.7333 234.984 21.6267 234.798 21.6C234.691 21.68 234.571 21.8133 234.438 22C234.304 22.1867 234.171 22.4133 234.038 22.68C233.878 23.08 233.718 23.48 233.558 23.88C233.398 24.2533 233.264 24.6667 233.158 25.12C233.051 25.5467 232.984 26.0667 232.958 26.68C232.984 26.9733 232.864 27.2933 232.598 27.64C232.331 27.96 231.984 28.12 231.558 28.12Z" fill="white"/>
</svg>
